<svg xmlns="http://www.w3.org/2000/svg" width="43" height="56" fill="none" viewBox="0 0 43 56">
  <path fill="#BAA477" d="M33.643 32.205s-12.309.287-12.309 23.031c0 0 3.54-16.071 10.735-16.071 8.376 0 2.124 8.258 2.124 8.258s7.313-.472 8.173-7.763c.95-8.046-8.723-7.455-8.723-7.455zM8.789 32.205s-9.672-.591-8.723 7.453c.859 7.293 8.173 7.763 8.173 7.763s-6.252-8.258 2.124-8.258c7.196 0 10.734 16.071 10.734 16.071 0-22.742-12.308-23.029-12.308-23.029zM21.215 0c-.354 7.904-5.571 21.739-5.571 21.739 3.863 4.945 5.571 21.91 5.571 21.91s1.708-16.965 5.571-21.91c.002 0-5.217-13.835-5.571-21.739z"/>
</svg>
